<svg width="44" height="40" viewBox="0 0 44 40" fill="none" xmlns="http://www.w3.org/2000/svg">
<path d="M13.2 31.9087C10.78 31.9087 8.822 33.6968 8.822 35.8821C8.822 38.0675 10.78 39.8555 13.2 39.8555C15.62 39.8555 17.6 38.0675 17.6 35.8821C17.6 33.6968 15.62 31.9087 13.2 31.9087ZM0 0.121674V4.09506H4.4L12.32 19.1741L9.35 24.0414C8.998 24.5977 8.8 25.2533 8.8 25.9487C8.8 28.134 10.78 29.9221 13.2 29.9221H39.6V25.9487H14.124C13.816 25.9487 13.574 25.7301 13.574 25.452L13.64 25.2136L15.62 21.9753H32.01C33.66 21.9753 35.112 21.1607 35.86 19.929L43.736 7.03536C43.912 6.75723 44 6.41949 44 6.08175C44 4.98907 43.01 4.09506 41.8 4.09506H9.262L7.194 0.121674H0ZM35.2 31.9087C32.78 31.9087 30.822 33.6968 30.822 35.8821C30.822 38.0675 32.78 39.8555 35.2 39.8555C37.62 39.8555 39.6 38.0675 39.6 35.8821C39.6 33.6968 37.62 31.9087 35.2 31.9087Z" fill="white"/>
</svg>
