<svg width="40" height="37" viewBox="0 0 40 37" fill="none" xmlns="http://www.w3.org/2000/svg">
<path d="M29 2C34.0401 2 38 5.96871 38 11.0898C38 14.2491 36.6085 17.2693 33.7588 20.7842C30.8856 24.328 26.7392 28.1285 21.5488 32.8838L20.0049 34.29L18.4521 32.8652L18.4492 32.8623C13.2593 28.1176 9.11293 24.3221 6.24023 20.7812C3.39104 17.2693 2 14.249 2 11.0898C2.00004 5.96871 5.95991 2 11 2C13.8683 2 16.6567 3.35623 18.4717 5.50488L20 7.31348L21.5283 5.50488C23.3433 3.35623 26.1317 2 29 2Z" stroke="#255EED" stroke-width="4"/>
</svg>
