<svg width="100" height="62" viewBox="0 0 100 62" fill="none" xmlns="http://www.w3.org/2000/svg">
<path d="M7.65625 48.625C5.88542 48.625 4.38542 48.3958 3.15625 47.9375C1.92708 47.4583 0.979167 46.8333 0.3125 46.0625C0.770833 43.9792 1.33333 41.7917 2 39.5C2.66667 37.1875 3.38542 34.9792 4.15625 32.875C4.92708 30.75 5.67708 28.9583 6.40625 27.5C6.19792 26.1667 6.04167 24.6146 5.9375 22.8438C5.85417 21.0729 5.80208 19.2292 5.78125 17.3125C5.76042 15.3958 5.75 13.5521 5.75 11.7812C5.77083 10.0104 5.79167 8.46875 5.8125 7.15625C5.83333 5.82292 5.84375 4.86458 5.84375 4.28125C6.36458 3.65625 7.15625 3.03125 8.21875 2.40625C9.28125 1.78125 10.5104 1.26042 11.9062 0.84375C13.3021 0.427083 14.7292 0.21875 16.1875 0.21875C17.1042 0.21875 17.9792 0.3125 18.8125 0.5C19.6458 0.6875 20.3854 1.01042 21.0312 1.46875L15.5938 23C17.1354 22.7708 18.8958 22.5208 20.875 22.25C22.8542 21.9792 24.5 21.7708 25.8125 21.625C25.6667 18.7708 25.5521 15.7708 25.4688 12.625C25.4062 9.47917 25.4167 6.6875 25.5 4.25C25.9792 3.6875 26.7292 3.09375 27.75 2.46875C28.7708 1.82292 29.9792 1.28125 31.375 0.84375C32.7708 0.40625 34.25 0.1875 35.8125 0.1875C36.75 0.1875 37.6458 0.28125 38.5 0.46875C39.3542 0.65625 40.1042 0.979167 40.75 1.4375L32.125 38.125L36.25 38.0312L36.5625 42.4688C36.1042 43.2812 35.4062 44.1667 34.4688 45.125C33.5521 46.0833 32.4792 46.9062 31.25 47.5938C30.0417 48.2812 28.7708 48.625 27.4375 48.625C25.5833 48.625 24.0938 48.0938 22.9688 47.0312C21.8438 45.9479 21.2812 44.4479 21.2812 42.5312C21.2812 41.4271 21.4792 40.0729 21.875 38.4688C22.2917 36.8438 22.75 35.25 23.25 33.6875C23.75 32.1042 24.1562 30.8229 24.4688 29.8438C21.4479 29.6562 19.1979 29.5 17.7188 29.375C16.2604 29.25 15.0417 29.1146 14.0625 28.9688V29.0312C14.1042 30.7604 14.0729 32.6771 13.9688 34.7812C13.8854 36.8854 13.75 39.0312 13.5625 41.2188C13.375 43.3854 13.1667 45.4479 12.9375 47.4062C11.6042 48.2188 9.84375 48.625 7.65625 48.625ZM49.8 48.625C48.4667 48.5 46.9146 48.1979 45.1437 47.7188C43.3729 47.2188 41.7167 46.625 40.175 45.9375C38.6542 45.2292 37.5708 44.5 36.925 43.75C36.8625 39.0208 36.9146 34.3854 37.0812 29.8438C37.2687 25.3021 37.9667 20.875 39.175 16.5625C39.7167 15.9792 40.6125 15.3542 41.8625 14.6875C43.1125 14.0208 44.4875 13.3854 45.9875 12.7812C47.5083 12.1562 48.9562 11.625 50.3312 11.1875C51.7062 10.75 52.7792 10.4792 53.55 10.375C55.2375 10.5417 56.9875 10.9583 58.8 11.625C60.6333 12.2708 62.3104 13.0833 63.8312 14.0625C65.3521 15.0208 66.4875 16.0521 67.2375 17.1562C67.2583 17.3438 67.2687 17.5625 67.2687 17.8125C67.2896 18.0417 67.3 18.2917 67.3 18.5625C67.3 19.9167 67.1437 21.625 66.8312 23.6875C66.5396 25.75 66.1333 27.9479 65.6125 30.2812C65.0917 32.6146 64.5083 34.8958 63.8625 37.125C63.2167 39.3542 62.5604 41.3125 61.8937 43C61.4354 43.4583 60.6646 44.0104 59.5812 44.6562C58.5187 45.2812 57.4667 45.8542 56.425 46.375C53.8 47.6667 51.5917 48.4167 49.8 48.625ZM51.4562 41.125L53.2687 39.9375C53.5604 38.75 53.7896 37.6042 53.9562 36.5C54.1437 35.3958 54.3104 34.2396 54.4562 33.0312C54.7062 31.3021 54.8937 29.6354 55.0187 28.0312C55.1646 26.4062 55.2583 24.7292 55.3 23L50.8937 21.0312L48.9562 21.9375C48.6229 23.3333 48.3521 24.6667 48.1437 25.9375C47.9354 27.1875 47.7479 28.3646 47.5812 29.4688C47.1646 32.5521 46.8729 35.6875 46.7062 38.875C47.3104 39.3125 47.9875 39.7396 48.7375 40.1562C49.4875 40.5521 50.3937 40.875 51.4562 41.125ZM72.5375 61.6875C71.725 61.6875 70.9229 61.4896 70.1312 61.0938C69.3604 60.6979 68.6729 60.2604 68.0687 59.7812C67.2979 59.1771 66.725 58.5833 66.35 58C65.9958 57.4167 65.8812 56.4479 66.0062 55.0938L68.3812 32C68.2146 30.5208 68.0583 28.9167 67.9125 27.1875C67.7875 25.4375 67.6729 23.7396 67.5687 22.0938C67.4854 20.4479 67.4333 19.0104 67.4125 17.7812C67.3917 16.5312 67.4125 15.6562 67.475 15.1562L67.5062 14.8438C68.4229 13.5938 69.7875 12.6458 71.6 12C73.4333 11.3333 75.1729 11 76.8187 11C77.7562 11 78.6 11.1042 79.35 11.3125C80.1 11.5208 80.6729 11.8438 81.0687 12.2812L76.225 31.625L76.3187 31.6562L86.0375 11.5938C86.3917 11.5104 86.8187 11.3958 87.3187 11.25C87.8396 11.0833 88.5375 11 89.4125 11C90.1833 11 91.1625 11.1562 92.35 11.4688C93.5583 11.7812 94.8083 12.2708 96.1 12.9375C97.3917 13.6042 98.5687 14.4792 99.6312 15.5625C99.1312 18.8542 98.4542 22.1771 97.6 25.5312C96.7458 28.8646 95.6625 32.3854 94.35 36.0938C93.0583 39.7812 91.475 43.8021 89.6 48.1562C89.1 48.3021 88.6 48.4167 88.1 48.5C87.6208 48.5833 87.1104 48.625 86.5687 48.625C84.4021 48.625 82.3812 48.3438 80.5062 47.7812C78.6521 47.1979 77.2979 46.6562 76.4437 46.1562C76.2354 46.9688 75.975 47.875 75.6625 48.875C75.3708 49.8958 75.0167 50.9792 74.6 52.125H80.4125L80.9125 57.2188C80.35 57.9271 79.5792 58.625 78.6 59.3125C77.6417 60 76.6208 60.5625 75.5375 61C74.4542 61.4583 73.4542 61.6875 72.5375 61.6875ZM83.4437 40.8438C83.7146 39.6771 84.0062 38.3229 84.3187 36.7812C84.6312 35.2188 84.9437 33.625 85.2562 32C85.5687 30.375 85.85 28.8333 86.1 27.375C86.3708 25.9167 86.5792 24.6979 86.725 23.7188L85.9125 23.4688C85.3917 24.3229 84.7042 25.4688 83.85 26.9062C82.9958 28.3229 82.1104 29.7917 81.1937 31.3125C80.2771 32.8333 79.4542 34.2083 78.725 35.4375C78.0167 36.6667 77.5271 37.5208 77.2562 38C77.7979 38.5 78.4646 38.9688 79.2562 39.4062C80.0479 39.8229 80.8292 40.1562 81.6 40.4062C82.3917 40.6562 83.0062 40.8021 83.4437 40.8438Z" fill="#255EED"/>
</svg>
