<svg width="219" height="110" viewBox="0 0 219 110" fill="none" xmlns="http://www.w3.org/2000/svg">
<path d="M11.6562 63.625C9.88542 63.625 8.38542 63.3958 7.15625 62.9375C5.92708 62.4583 4.97917 61.8333 4.3125 61.0625C4.77083 58.9792 5.33333 56.7917 6 54.5C6.66667 52.1875 7.38542 49.9792 8.15625 47.875C8.92708 45.75 9.67708 43.9583 10.4062 42.5C10.1979 41.1667 10.0417 39.6146 9.9375 37.8438C9.85417 36.0729 9.80208 34.2292 9.78125 32.3125C9.76042 30.3958 9.75 28.5521 9.75 26.7812C9.77083 25.0104 9.79167 23.4688 9.8125 22.1562C9.83333 20.8229 9.84375 19.8646 9.84375 19.2812C10.3646 18.6562 11.1562 18.0312 12.2188 17.4062C13.2812 16.7812 14.5104 16.2604 15.9062 15.8438C17.3021 15.4271 18.7292 15.2188 20.1875 15.2188C21.1042 15.2188 21.9792 15.3125 22.8125 15.5C23.6458 15.6875 24.3854 16.0104 25.0312 16.4688L19.5938 38C21.1354 37.7708 22.8958 37.5208 24.875 37.25C26.8542 36.9792 28.5 36.7708 29.8125 36.625C29.6667 33.7708 29.5521 30.7708 29.4688 27.625C29.4062 24.4792 29.4167 21.6875 29.5 19.25C29.9792 18.6875 30.7292 18.0938 31.75 17.4688C32.7708 16.8229 33.9792 16.2812 35.375 15.8438C36.7708 15.4062 38.25 15.1875 39.8125 15.1875C40.75 15.1875 41.6458 15.2812 42.5 15.4688C43.3542 15.6562 44.1042 15.9792 44.75 16.4375L36.125 53.125L40.25 53.0312L40.5625 57.4688C40.1042 58.2812 39.4062 59.1667 38.4688 60.125C37.5521 61.0833 36.4792 61.9062 35.25 62.5938C34.0417 63.2812 32.7708 63.625 31.4375 63.625C29.5833 63.625 28.0938 63.0938 26.9688 62.0312C25.8438 60.9479 25.2812 59.4479 25.2812 57.5312C25.2812 56.4271 25.4792 55.0729 25.875 53.4688C26.2917 51.8438 26.75 50.25 27.25 48.6875C27.75 47.1042 28.1562 45.8229 28.4688 44.8438C25.4479 44.6562 23.1979 44.5 21.7188 44.375C20.2604 44.25 19.0417 44.1146 18.0625 43.9688V44.0312C18.1042 45.7604 18.0729 47.6771 17.9688 49.7812C17.8854 51.8854 17.75 54.0312 17.5625 56.2188C17.375 58.3854 17.1667 60.4479 16.9375 62.4062C15.6042 63.2188 13.8438 63.625 11.6562 63.625ZM53.8 63.625C52.4667 63.5 50.9146 63.1979 49.1437 62.7188C47.3729 62.2188 45.7167 61.625 44.175 60.9375C42.6542 60.2292 41.5708 59.5 40.925 58.75C40.8625 54.0208 40.9146 49.3854 41.0812 44.8438C41.2687 40.3021 41.9667 35.875 43.175 31.5625C43.7167 30.9792 44.6125 30.3542 45.8625 29.6875C47.1125 29.0208 48.4875 28.3854 49.9875 27.7812C51.5083 27.1562 52.9562 26.625 54.3312 26.1875C55.7062 25.75 56.7792 25.4792 57.55 25.375C59.2375 25.5417 60.9875 25.9583 62.8 26.625C64.6333 27.2708 66.3104 28.0833 67.8312 29.0625C69.3521 30.0208 70.4875 31.0521 71.2375 32.1562C71.2583 32.3438 71.2687 32.5625 71.2687 32.8125C71.2896 33.0417 71.3 33.2917 71.3 33.5625C71.3 34.9167 71.1437 36.625 70.8312 38.6875C70.5396 40.75 70.1333 42.9479 69.6125 45.2812C69.0917 47.6146 68.5083 49.8958 67.8625 52.125C67.2167 54.3542 66.5604 56.3125 65.8937 58C65.4354 58.4583 64.6646 59.0104 63.5812 59.6562C62.5187 60.2812 61.4667 60.8542 60.425 61.375C57.8 62.6667 55.5917 63.4167 53.8 63.625ZM55.4562 56.125L57.2687 54.9375C57.5604 53.75 57.7896 52.6042 57.9562 51.5C58.1437 50.3958 58.3104 49.2396 58.4562 48.0312C58.7062 46.3021 58.8937 44.6354 59.0187 43.0312C59.1646 41.4062 59.2583 39.7292 59.3 38L54.8937 36.0312L52.9562 36.9375C52.6229 38.3333 52.3521 39.6667 52.1437 40.9375C51.9354 42.1875 51.7479 43.3646 51.5812 44.4688C51.1646 47.5521 50.8729 50.6875 50.7062 53.875C51.3104 54.3125 51.9875 54.7396 52.7375 55.1562C53.4875 55.5521 54.3937 55.875 55.4562 56.125ZM76.5375 76.6875C75.725 76.6875 74.9229 76.4896 74.1312 76.0938C73.3604 75.6979 72.6729 75.2604 72.0687 74.7812C71.2979 74.1771 70.725 73.5833 70.35 73C69.9958 72.4167 69.8812 71.4479 70.0062 70.0938L72.3812 47C72.2146 45.5208 72.0583 43.9167 71.9125 42.1875C71.7875 40.4375 71.6729 38.7396 71.5687 37.0938C71.4854 35.4479 71.4333 34.0104 71.4125 32.7812C71.3917 31.5312 71.4125 30.6562 71.475 30.1562L71.5062 29.8438C72.4229 28.5938 73.7875 27.6458 75.6 27C77.4333 26.3333 79.1729 26 80.8187 26C81.7562 26 82.6 26.1042 83.35 26.3125C84.1 26.5208 84.6729 26.8438 85.0687 27.2812L80.225 46.625L80.3187 46.6562L90.0375 26.5938C90.3917 26.5104 90.8187 26.3958 91.3187 26.25C91.8396 26.0833 92.5375 26 93.4125 26C94.1833 26 95.1625 26.1562 96.35 26.4688C97.5583 26.7812 98.8083 27.2708 100.1 27.9375C101.392 28.6042 102.569 29.4792 103.631 30.5625C103.131 33.8542 102.454 37.1771 101.6 40.5312C100.746 43.8646 99.6625 47.3854 98.35 51.0938C97.0583 54.7812 95.475 58.8021 93.6 63.1562C93.1 63.3021 92.6 63.4167 92.1 63.5C91.6208 63.5833 91.1104 63.625 90.5687 63.625C88.4021 63.625 86.3812 63.3438 84.5062 62.7812C82.6521 62.1979 81.2979 61.6562 80.4437 61.1562C80.2354 61.9688 79.975 62.875 79.6625 63.875C79.3708 64.8958 79.0167 65.9792 78.6 67.125H84.4125L84.9125 72.2188C84.35 72.9271 83.5792 73.625 82.6 74.3125C81.6417 75 80.6208 75.5625 79.5375 76C78.4542 76.4583 77.4542 76.6875 76.5375 76.6875ZM87.4437 55.8438C87.7146 54.6771 88.0062 53.3229 88.3187 51.7812C88.6312 50.2188 88.9437 48.625 89.2562 47C89.5687 45.375 89.85 43.8333 90.1 42.375C90.3708 40.9167 90.5792 39.6979 90.725 38.7188L89.9125 38.4688C89.3917 39.3229 88.7042 40.4688 87.85 41.9062C86.9958 43.3229 86.1104 44.7917 85.1937 46.3125C84.2771 47.8333 83.4542 49.2083 82.725 50.4375C82.0167 51.6667 81.5271 52.5208 81.2562 53C81.7979 53.5 82.4646 53.9688 83.2562 54.4062C84.0479 54.8229 84.8292 55.1562 85.6 55.4062C86.3917 55.6562 87.0062 55.8021 87.4437 55.8438Z" fill="#255EED"/>
<path d="M109.125 93.625C109.188 93.6458 108.719 93.5938 107.719 93.4688C106.719 93.3646 105.469 93.2188 103.969 93.0312C102.469 92.8646 100.958 92.6875 99.4375 92.5C97.9375 92.3125 96.6875 92.1562 95.6875 92.0312C94.6875 91.9062 94.2188 91.8438 94.2812 91.8438C93.5938 90.1979 93.2188 88.6979 93.1562 87.3438C93.0938 85.9896 93.2083 84.8021 93.5 83.7812C93.7917 82.7396 94.1146 81.8854 94.4688 81.2188C94.8438 80.5521 95.1042 80.0833 95.25 79.8125C97.6875 80 99.9792 80.6354 102.125 81.7188C104.292 82.8021 106.26 84.0312 108.031 85.4062L109.938 84.625C110.229 83.8125 110.49 82.875 110.719 81.8125C110.969 80.75 111.021 79.75 110.875 78.8125C109.938 78.5208 108.708 78.0104 107.188 77.2812C105.667 76.5312 104.094 75.6667 102.469 74.6875C100.865 73.6875 99.4375 72.6562 98.1875 71.5938C96.9375 70.5312 96.1146 69.5521 95.7188 68.6562C95.6354 67.9479 95.6146 66.9688 95.6562 65.7188C95.6979 64.4688 95.7708 63.125 95.875 61.6875C95.9792 60.2292 96.0833 58.8333 96.1875 57.5C96.2917 56.1458 96.3542 55.0208 96.375 54.125C98.125 51.75 100.01 49.8229 102.031 48.3438C104.073 46.8646 106.323 45.6146 108.781 44.5938C109.469 44.8229 110.24 45.1667 111.094 45.625C111.969 46.0833 112.781 46.5417 113.531 47C114.302 47.4375 114.885 47.7708 115.281 48L125.062 47.5312C125.271 49.5104 125.167 51.3438 124.75 53.0312C124.333 54.6979 123.771 56.1771 123.062 57.4688C122.354 58.7396 121.625 59.7708 120.875 60.5625C120.146 61.3542 119.562 61.8542 119.125 62.0625C118.208 61.8542 117.094 61.4479 115.781 60.8438C114.49 60.2188 113.177 59.4375 111.844 58.5C110.531 57.5417 109.365 56.4583 108.344 55.25H107.938L105.906 61.8125C106.635 62.2917 107.698 63.0729 109.094 64.1562C110.51 65.2188 112.021 66.4583 113.625 67.875C115.25 69.2708 116.76 70.7188 118.156 72.2188C119.573 73.7188 120.635 75.1458 121.344 76.5C121.302 77.5 121.062 78.7292 120.625 80.1875C120.188 81.6458 119.698 83.0729 119.156 84.4688C118.635 85.8438 118.198 86.9375 117.844 87.75C116.448 89 115.062 90.125 113.688 91.125C112.312 92.1042 110.792 92.9375 109.125 93.625ZM129.987 93.625C128.487 93.625 126.987 93.4062 125.487 92.9688C124.008 92.5104 122.935 91.8333 122.269 90.9375C122.977 88.6042 123.571 86.7708 124.05 85.4375C124.529 84.1042 125.071 82.8021 125.675 81.5312C125.717 81.4479 125.737 81.4167 125.737 81.4375C125.55 80.9167 125.394 79.9583 125.269 78.5625C125.165 77.1667 125.071 75.5104 124.987 73.5938C124.925 71.6562 124.873 69.6042 124.831 67.4375C124.81 65.25 124.8 63.125 124.8 61.0625C124.8 56.3125 124.852 52.8958 124.956 50.8125C125.081 48.7292 125.154 47.5208 125.175 47.1875C126.258 45.9583 127.748 44.8854 129.644 43.9688C131.56 43.0312 133.435 42.5625 135.269 42.5625C136.144 42.5625 136.967 42.6771 137.737 42.9062C138.508 43.1354 139.206 43.5208 139.831 44.0625C139.019 49.3958 137.967 54.7917 136.675 60.25C135.383 65.7083 134.123 71.2292 132.894 76.8125L133.269 76.9062L133.362 76.9375C134.946 73.3333 136.373 69.875 137.644 66.5625C138.935 63.2292 140.477 59.9062 142.269 56.5938C142.602 56.5104 143.133 56.4062 143.862 56.2812C144.612 56.1354 145.415 56.0625 146.269 56.0625C147.415 56.0625 148.935 56.3958 150.831 57.0625C152.748 57.7292 154.592 58.8958 156.362 60.5625C156.175 61.8958 155.831 63.5 155.331 65.375C154.831 67.2292 154.217 69.2083 153.487 71.3125C152.758 73.3958 151.956 75.4792 151.081 77.5625C150.206 79.625 149.31 81.5312 148.394 83.2812L153.894 80.5L156.05 84.2812C155.446 85.6146 154.612 87.0104 153.55 88.4688C152.487 89.9062 151.331 91.125 150.081 92.125C148.831 93.125 147.623 93.625 146.456 93.625C145.498 93.625 144.519 93.3542 143.519 92.8125C142.54 92.25 141.727 91.5521 141.081 90.7188C140.498 89.9688 140.102 89.25 139.894 88.5625C139.706 87.875 139.696 87.0521 139.862 86.0938L142.987 68.875L142.206 68.5938C141.102 70.4688 140.133 72.1146 139.3 73.5312C138.487 74.9271 137.685 76.2708 136.894 77.5625C136.123 78.8333 135.248 80.2292 134.269 81.75C134.56 83.2083 134.831 84.8021 135.081 86.5312C135.331 88.2396 135.435 90.1458 135.394 92.25C134.644 92.75 133.81 93.1042 132.894 93.3125C131.977 93.5208 131.008 93.625 129.987 93.625ZM169.037 93.625C167.704 93.5 166.152 93.1979 164.381 92.7188C162.61 92.2188 160.954 91.625 159.412 90.9375C157.892 90.2292 156.808 89.5 156.162 88.75C156.1 84.0208 156.152 79.3854 156.319 74.8438C156.506 70.3021 157.204 65.875 158.412 61.5625C158.954 60.9792 159.85 60.3542 161.1 59.6875C162.35 59.0208 163.725 58.3854 165.225 57.7812C166.746 57.1562 168.194 56.625 169.569 56.1875C170.944 55.75 172.017 55.4792 172.787 55.375C174.475 55.5417 176.225 55.9583 178.037 56.625C179.871 57.2708 181.548 58.0833 183.069 59.0625C184.59 60.0208 185.725 61.0521 186.475 62.1562C186.496 62.3438 186.506 62.5625 186.506 62.8125C186.527 63.0417 186.537 63.2917 186.537 63.5625C186.537 64.9167 186.381 66.625 186.069 68.6875C185.777 70.75 185.371 72.9479 184.85 75.2812C184.329 77.6146 183.746 79.8958 183.1 82.125C182.454 84.3542 181.798 86.3125 181.131 88C180.673 88.4583 179.902 89.0104 178.819 89.6562C177.756 90.2812 176.704 90.8542 175.662 91.375C173.037 92.6667 170.829 93.4167 169.037 93.625ZM170.694 86.125L172.506 84.9375C172.798 83.75 173.027 82.6042 173.194 81.5C173.381 80.3958 173.548 79.2396 173.694 78.0312C173.944 76.3021 174.131 74.6354 174.256 73.0312C174.402 71.4062 174.496 69.7292 174.537 68L170.131 66.0312L168.194 66.9375C167.86 68.3333 167.59 69.6667 167.381 70.9375C167.173 72.1875 166.985 73.3646 166.819 74.4688C166.402 77.5521 166.11 80.6875 165.944 83.875C166.548 84.3125 167.225 84.7396 167.975 85.1562C168.725 85.5521 169.631 85.875 170.694 86.125ZM191.775 106.688C190.963 106.688 190.16 106.49 189.369 106.094C188.598 105.698 187.91 105.26 187.306 104.781C186.535 104.177 185.963 103.583 185.588 103C185.233 102.417 185.119 101.448 185.244 100.094L187.619 77C187.452 75.5208 187.296 73.9167 187.15 72.1875C187.025 70.4375 186.91 68.7396 186.806 67.0938C186.723 65.4479 186.671 64.0104 186.65 62.7812C186.629 61.5312 186.65 60.6562 186.713 60.1562L186.744 59.8438C187.66 58.5938 189.025 57.6458 190.838 57C192.671 56.3333 194.41 56 196.056 56C196.994 56 197.838 56.1042 198.588 56.3125C199.338 56.5208 199.91 56.8438 200.306 57.2812L195.463 76.625L195.556 76.6562L205.275 56.5938C205.629 56.5104 206.056 56.3958 206.556 56.25C207.077 56.0833 207.775 56 208.65 56C209.421 56 210.4 56.1562 211.588 56.4688C212.796 56.7812 214.046 57.2708 215.338 57.9375C216.629 58.6042 217.806 59.4792 218.869 60.5625C218.369 63.8542 217.692 67.1771 216.838 70.5312C215.983 73.8646 214.9 77.3854 213.588 81.0938C212.296 84.7812 210.713 88.8021 208.838 93.1562C208.338 93.3021 207.838 93.4167 207.338 93.5C206.858 93.5833 206.348 93.625 205.806 93.625C203.64 93.625 201.619 93.3438 199.744 92.7812C197.89 92.1979 196.535 91.6562 195.681 91.1562C195.473 91.9688 195.213 92.875 194.9 93.875C194.608 94.8958 194.254 95.9792 193.838 97.125H199.65L200.15 102.219C199.588 102.927 198.817 103.625 197.838 104.312C196.879 105 195.858 105.562 194.775 106C193.692 106.458 192.692 106.688 191.775 106.688ZM202.681 85.8438C202.952 84.6771 203.244 83.3229 203.556 81.7812C203.869 80.2188 204.181 78.625 204.494 77C204.806 75.375 205.088 73.8333 205.338 72.375C205.608 70.9167 205.817 69.6979 205.963 68.7188L205.15 68.4688C204.629 69.3229 203.942 70.4688 203.088 71.9062C202.233 73.3229 201.348 74.7917 200.431 76.3125C199.515 77.8333 198.692 79.2083 197.963 80.4375C197.254 81.6667 196.765 82.5208 196.494 83C197.035 83.5 197.702 83.9688 198.494 84.4062C199.285 84.8229 200.067 85.1562 200.838 85.4062C201.629 85.6562 202.244 85.8021 202.681 85.8438Z" fill="#255EED"/>
</svg>
