<svg width="126" height="65" viewBox="0 0 126 65" fill="none" xmlns="http://www.w3.org/2000/svg">
<path d="M16.125 51.625C16.1875 51.6458 15.7188 51.5938 14.7188 51.4688C13.7188 51.3646 12.4688 51.2188 10.9688 51.0312C9.46875 50.8646 7.95833 50.6875 6.4375 50.5C4.9375 50.3125 3.6875 50.1562 2.6875 50.0312C1.6875 49.9062 1.21875 49.8438 1.28125 49.8438C0.59375 48.1979 0.21875 46.6979 0.15625 45.3438C0.09375 43.9896 0.208333 42.8021 0.5 41.7812C0.791667 40.7396 1.11458 39.8854 1.46875 39.2188C1.84375 38.5521 2.10417 38.0833 2.25 37.8125C4.6875 38 6.97917 38.6354 9.125 39.7188C11.2917 40.8021 13.2604 42.0312 15.0312 43.4062L16.9375 42.625C17.2292 41.8125 17.4896 40.875 17.7188 39.8125C17.9688 38.75 18.0208 37.75 17.875 36.8125C16.9375 36.5208 15.7083 36.0104 14.1875 35.2812C12.6667 34.5312 11.0938 33.6667 9.46875 32.6875C7.86458 31.6875 6.4375 30.6562 5.1875 29.5938C3.9375 28.5312 3.11458 27.5521 2.71875 26.6562C2.63542 25.9479 2.61458 24.9688 2.65625 23.7188C2.69792 22.4688 2.77083 21.125 2.875 19.6875C2.97917 18.2292 3.08333 16.8333 3.1875 15.5C3.29167 14.1458 3.35417 13.0208 3.375 12.125C5.125 9.75 7.01042 7.82292 9.03125 6.34375C11.0729 4.86458 13.3229 3.61458 15.7812 2.59375C16.4688 2.82292 17.2396 3.16667 18.0938 3.625C18.9688 4.08333 19.7812 4.54167 20.5312 5C21.3021 5.4375 21.8854 5.77083 22.2812 6L32.0625 5.53125C32.2708 7.51042 32.1667 9.34375 31.75 11.0312C31.3333 12.6979 30.7708 14.1771 30.0625 15.4688C29.3542 16.7396 28.625 17.7708 27.875 18.5625C27.1458 19.3542 26.5625 19.8542 26.125 20.0625C25.2083 19.8542 24.0938 19.4479 22.7812 18.8438C21.4896 18.2188 20.1771 17.4375 18.8438 16.5C17.5312 15.5417 16.3646 14.4583 15.3438 13.25H14.9375L12.9062 19.8125C13.6354 20.2917 14.6979 21.0729 16.0938 22.1562C17.5104 23.2188 19.0208 24.4583 20.625 25.875C22.25 27.2708 23.7604 28.7188 25.1562 30.2188C26.5729 31.7188 27.6354 33.1458 28.3438 34.5C28.3021 35.5 28.0625 36.7292 27.625 38.1875C27.1875 39.6458 26.6979 41.0729 26.1562 42.4688C25.6354 43.8438 25.1979 44.9375 24.8438 45.75C23.4479 47 22.0625 48.125 20.6875 49.125C19.3125 50.1042 17.7917 50.9375 16.125 51.625ZM36.9875 51.625C35.4875 51.625 33.9875 51.4062 32.4875 50.9688C31.0083 50.5104 29.9354 49.8333 29.2687 48.9375C29.9771 46.6042 30.5708 44.7708 31.05 43.4375C31.5292 42.1042 32.0708 40.8021 32.675 39.5312C32.7167 39.4479 32.7375 39.4167 32.7375 39.4375C32.55 38.9167 32.3937 37.9583 32.2687 36.5625C32.1646 35.1667 32.0708 33.5104 31.9875 31.5938C31.925 29.6562 31.8729 27.6042 31.8312 25.4375C31.8104 23.25 31.8 21.125 31.8 19.0625C31.8 14.3125 31.8521 10.8958 31.9562 8.8125C32.0812 6.72917 32.1542 5.52083 32.175 5.1875C33.2583 3.95833 34.7479 2.88542 36.6437 1.96875C38.5604 1.03125 40.4354 0.5625 42.2687 0.5625C43.1437 0.5625 43.9667 0.677083 44.7375 0.90625C45.5083 1.13542 46.2062 1.52083 46.8312 2.0625C46.0187 7.39583 44.9667 12.7917 43.675 18.25C42.3833 23.7083 41.1229 29.2292 39.8937 34.8125L40.2687 34.9062L40.3625 34.9375C41.9458 31.3333 43.3729 27.875 44.6437 24.5625C45.9354 21.2292 47.4771 17.9062 49.2687 14.5938C49.6021 14.5104 50.1333 14.4062 50.8625 14.2812C51.6125 14.1354 52.4146 14.0625 53.2687 14.0625C54.4146 14.0625 55.9354 14.3958 57.8312 15.0625C59.7479 15.7292 61.5917 16.8958 63.3625 18.5625C63.175 19.8958 62.8312 21.5 62.3312 23.375C61.8312 25.2292 61.2167 27.2083 60.4875 29.3125C59.7583 31.3958 58.9562 33.4792 58.0812 35.5625C57.2062 37.625 56.3104 39.5312 55.3937 41.2812L60.8937 38.5L63.05 42.2812C62.4458 43.6146 61.6125 45.0104 60.55 46.4688C59.4875 47.9062 58.3312 49.125 57.0812 50.125C55.8312 51.125 54.6229 51.625 53.4562 51.625C52.4979 51.625 51.5187 51.3542 50.5187 50.8125C49.5396 50.25 48.7271 49.5521 48.0812 48.7188C47.4979 47.9688 47.1021 47.25 46.8937 46.5625C46.7062 45.875 46.6958 45.0521 46.8625 44.0938L49.9875 26.875L49.2062 26.5938C48.1021 28.4688 47.1333 30.1146 46.3 31.5312C45.4875 32.9271 44.6854 34.2708 43.8937 35.5625C43.1229 36.8333 42.2479 38.2292 41.2687 39.75C41.5604 41.2083 41.8312 42.8021 42.0812 44.5312C42.3312 46.2396 42.4354 48.1458 42.3937 50.25C41.6437 50.75 40.8104 51.1042 39.8937 51.3125C38.9771 51.5208 38.0083 51.625 36.9875 51.625ZM76.0375 51.625C74.7042 51.5 73.1521 51.1979 71.3812 50.7188C69.6104 50.2188 67.9542 49.625 66.4125 48.9375C64.8917 48.2292 63.8083 47.5 63.1625 46.75C63.1 42.0208 63.1521 37.3854 63.3187 32.8438C63.5062 28.3021 64.2042 23.875 65.4125 19.5625C65.9542 18.9792 66.85 18.3542 68.1 17.6875C69.35 17.0208 70.725 16.3854 72.225 15.7812C73.7458 15.1562 75.1937 14.625 76.5687 14.1875C77.9437 13.75 79.0167 13.4792 79.7875 13.375C81.475 13.5417 83.225 13.9583 85.0375 14.625C86.8708 15.2708 88.5479 16.0833 90.0687 17.0625C91.5896 18.0208 92.725 19.0521 93.475 20.1562C93.4958 20.3438 93.5062 20.5625 93.5062 20.8125C93.5271 21.0417 93.5375 21.2917 93.5375 21.5625C93.5375 22.9167 93.3812 24.625 93.0687 26.6875C92.7771 28.75 92.3708 30.9479 91.85 33.2812C91.3292 35.6146 90.7458 37.8958 90.1 40.125C89.4542 42.3542 88.7979 44.3125 88.1312 46C87.6729 46.4583 86.9021 47.0104 85.8187 47.6562C84.7562 48.2812 83.7042 48.8542 82.6625 49.375C80.0375 50.6667 77.8292 51.4167 76.0375 51.625ZM77.6937 44.125L79.5062 42.9375C79.7979 41.75 80.0271 40.6042 80.1937 39.5C80.3812 38.3958 80.5479 37.2396 80.6937 36.0312C80.9437 34.3021 81.1312 32.6354 81.2562 31.0312C81.4021 29.4062 81.4958 27.7292 81.5375 26L77.1312 24.0312L75.1937 24.9375C74.8604 26.3333 74.5896 27.6667 74.3812 28.9375C74.1729 30.1875 73.9854 31.3646 73.8187 32.4688C73.4021 35.5521 73.1104 38.6875 72.9437 41.875C73.5479 42.3125 74.225 42.7396 74.975 43.1562C75.725 43.5521 76.6312 43.875 77.6937 44.125ZM98.775 64.6875C97.9625 64.6875 97.1604 64.4896 96.3688 64.0938C95.5979 63.6979 94.9104 63.2604 94.3063 62.7812C93.5354 62.1771 92.9625 61.5833 92.5875 61C92.2333 60.4167 92.1188 59.4479 92.2438 58.0938L94.6188 35C94.4521 33.5208 94.2958 31.9167 94.15 30.1875C94.025 28.4375 93.9104 26.7396 93.8063 25.0938C93.7229 23.4479 93.6708 22.0104 93.65 20.7812C93.6292 19.5312 93.65 18.6562 93.7125 18.1562L93.7438 17.8438C94.6604 16.5938 96.025 15.6458 97.8375 15C99.6708 14.3333 101.41 14 103.056 14C103.994 14 104.838 14.1042 105.588 14.3125C106.338 14.5208 106.91 14.8438 107.306 15.2812L102.463 34.625L102.556 34.6562L112.275 14.5938C112.629 14.5104 113.056 14.3958 113.556 14.25C114.077 14.0833 114.775 14 115.65 14C116.421 14 117.4 14.1562 118.588 14.4688C119.796 14.7812 121.046 15.2708 122.338 15.9375C123.629 16.6042 124.806 17.4792 125.869 18.5625C125.369 21.8542 124.692 25.1771 123.838 28.5312C122.983 31.8646 121.9 35.3854 120.588 39.0938C119.296 42.7812 117.713 46.8021 115.838 51.1562C115.338 51.3021 114.838 51.4167 114.338 51.5C113.858 51.5833 113.348 51.625 112.806 51.625C110.64 51.625 108.619 51.3438 106.744 50.7812C104.89 50.1979 103.535 49.6562 102.681 49.1562C102.473 49.9688 102.213 50.875 101.9 51.875C101.608 52.8958 101.254 53.9792 100.838 55.125H106.65L107.15 60.2188C106.588 60.9271 105.817 61.625 104.838 62.3125C103.879 63 102.858 63.5625 101.775 64C100.692 64.4583 99.6917 64.6875 98.775 64.6875ZM109.681 43.8438C109.952 42.6771 110.244 41.3229 110.556 39.7812C110.869 38.2188 111.181 36.625 111.494 35C111.806 33.375 112.088 31.8333 112.338 30.375C112.608 28.9167 112.817 27.6979 112.963 26.7188L112.15 26.4688C111.629 27.3229 110.942 28.4688 110.088 29.9062C109.233 31.3229 108.348 32.7917 107.431 34.3125C106.515 35.8333 105.692 37.2083 104.963 38.4375C104.254 39.6667 103.765 40.5208 103.494 41C104.035 41.5 104.702 41.9688 105.494 42.4062C106.285 42.8229 107.067 43.1562 107.838 43.4062C108.629 43.6562 109.244 43.8021 109.681 43.8438Z" fill="#255EED"/>
</svg>
